
<svg xmlns="http://www.w3.org/2000/svg" width="100" height="100" viewBox="0 0 100 100" fill="none">
  <rect width="100" height="100" rx="8" fill="#E5E7EB"/>
  <path d="M50 38C44.4772 38 40 42.4772 40 48C40 53.5228 44.4772 58 50 58C55.5228 58 60 53.5228 60 48C60 42.4772 55.5228 38 50 38ZM37 48C37 40.8203 42.8203 35 50 35C57.1797 35 63 40.8203 63 48C63 55.1797 57.1797 61 50 61C42.8203 61 37 55.1797 37 48ZM79 28H21C19.8954 28 19 28.8954 19 30V70C19 71.1046 19.8954 72 21 72H79C80.1046 72 81 71.1046 81 70V30C81 28.8954 80.1046 28 79 28ZM16 30C16 27.2386 18.2386 25 21 25H79C81.7614 25 84 27.2386 84 30V70C84 72.7614 81.7614 75 79 75H21C18.2386 75 16 72.7614 16 70V30Z" fill="#9CA3AF"/>
</svg>
